<?xml version="1.0" standalone="no"?>
<!DOCTYPE svg PUBLIC "-//W3C//DTD SVG 20010904//EN"
 "http://www.w3.org/TR/2001/REC-SVG-20010904/DTD/svg10.dtd">
<svg version="1.0" xmlns="http://www.w3.org/2000/svg"
 width="1080.000000pt" height="1080.000000pt" viewBox="0 0 1080.000000 1080.000000"
 preserveAspectRatio="xMidYMid meet">

<g transform="translate(0.000000,1080.000000) scale(0.100000,-0.100000)"
fill="#000000" stroke="none">
<path d="M3950 7088 c-492 -799 -927 -1505 -967 -1570 l-72 -117 112 39 c652
228 1291 449 1292 447 1 -1 -61 -103 -137 -227 -77 -124 -144 -233 -149 -242
-7 -13 26 -5 143 36 84 29 395 138 691 241 l538 188 687 -240 c378 -132 688
-239 690 -238 1 1 -61 105 -139 231 -78 126 -143 235 -146 241 -4 9 7 9 38 -3
38 -13 1097 -382 1292 -450 37 -12 66 -20 64 -16 -13 23 -1921 3118 -1927
3125 -5 6 -341 -526 -525 -833 -16 -27 -32 -50 -35 -49 -3 0 -124 193 -269
429 -145 236 -268 436 -275 444 -9 13 -178 -256 -906 -1436z m1003 169 c53
-90 97 -166 97 -170 0 -12 -603 -1001 -664 -1088 -10 -14 -27 -7 -146 63 -74
43 -141 83 -149 87 -11 7 71 149 368 640 211 347 386 631 390 631 3 -1 50 -74
104 -163z m1392 -471 c206 -340 375 -622 375 -626 0 -10 -271 -165 -288 -165
-7 0 -164 244 -348 543 l-335 543 77 132 c113 192 125 210 135 200 5 -5 177
-287 384 -627z m-827 -462 c51 -83 92 -156 92 -162 0 -5 -47 -38 -104 -71
l-104 -61 -106 61 c-58 33 -106 64 -106 69 0 4 34 64 76 132 149 241 135 221
148 201 7 -10 54 -86 104 -169z"/>
<path d="M3801 5104 c-21 -26 -21 -37 -21 -480 l0 -454 50 0 50 0 0 260 c0
253 1 260 20 260 19 0 20 -7 20 -260 l0 -260 50 0 50 0 0 480 0 480 -99 0
c-96 0 -100 -1 -120 -26z m119 -189 c0 -118 -1 -125 -20 -125 -19 0 -20 7 -20
125 0 118 1 125 20 125 19 0 20 -7 20 -125z"/>
<path d="M4190 4650 l0 -480 45 0 45 0 2 433 3 432 23 3 22 3 0 -435 0 -436
50 0 51 0 -3 461 -3 461 -24 19 c-19 16 -40 19 -117 19 l-94 0 0 -480z"/>
<path d="M4600 4666 l0 -465 22 -15 c15 -11 45 -16 91 -16 59 0 71 3 92 25
l25 24 0 456 0 455 -45 0 -45 0 0 -430 0 -430 -25 0 -25 0 0 430 0 430 -45 0
-45 0 0 -464z"/>
<path d="M5350 4672 c0 -380 2 -462 14 -478 13 -17 30 -19 190 -22 l176 -3 0
480 0 481 -45 0 -45 0 0 -430 0 -430 -25 0 -25 0 0 430 0 430 -50 0 -50 0 0
-430 c0 -423 0 -430 -20 -430 -20 0 -20 7 -20 430 l0 430 -50 0 -50 0 0 -458z"/>
<path d="M5900 4650 l0 -480 45 0 45 0 0 260 0 260 25 0 25 0 0 -260 0 -260
50 0 50 0 0 244 c0 244 -5 289 -36 313 -13 9 -12 15 11 37 l26 26 -3 156 c-4
190 1 184 -140 184 l-98 0 0 -480z m140 265 c0 -118 -1 -125 -20 -125 -19 0
-20 7 -20 125 0 118 1 125 20 125 19 0 20 -7 20 -125z"/>
<path d="M6329 5111 l-24 -19 -3 -461 -3 -461 51 0 50 0 0 260 0 260 25 0 25
0 0 -260 0 -260 50 0 50 0 0 480 0 480 -99 0 c-82 0 -103 -3 -122 -19z m119
-199 l3 -122 -26 0 -25 0 0 118 c0 65 3 122 7 126 4 4 14 5 23 4 12 -3 15 -25
18 -126z"/>
<path d="M6710 4650 l0 -480 45 0 45 0 0 214 0 214 57 4 c94 8 95 9 91 276 -4
269 6 252 -140 252 l-98 0 0 -480z m140 215 c0 -168 -1 -175 -20 -175 -19 0
-20 7 -20 175 0 168 1 175 20 175 19 0 20 -7 20 -175z"/>
<path d="M4992 4738 l3 -43 93 -3 92 -3 0 46 0 45 -96 0 -95 0 3 -42z"/>
<path d="M3553 3798 c-6 -7 -22 -78 -37 -157 -20 -106 -24 -147 -16 -155 15
-14 40 18 40 51 0 20 5 23 35 23 30 0 35 -4 41 -27 3 -16 7 -34 10 -40 4 -15
30 -17 38 -5 7 12 -45 294 -57 310 -5 6 -17 12 -27 12 -10 0 -22 -6 -27 -12z
m42 -118 c4 -33 7 -63 6 -67 -1 -12 -46 -10 -46 2 2 42 19 125 25 125 4 0 11
-27 15 -60z"/>
<path d="M3967 3792 c-19 -21 -22 -73 -6 -105 6 -12 28 -40 49 -62 47 -49 56
-77 34 -99 -20 -21 -36 -17 -49 12 -14 31 -45 29 -45 -2 0 -53 90 -76 130 -34
40 43 16 114 -64 187 -28 26 -34 59 -14 79 19 19 38 14 48 -14 7 -17 16 -24
28 -22 22 5 19 48 -5 66 -25 18 -87 15 -106 -6z"/>
<path d="M4235 3790 c-13 -15 -20 -42 -23 -99 -6 -101 4 -167 29 -192 28 -28
84 -25 114 6 24 23 25 30 25 138 0 100 -3 117 -21 141 -27 34 -96 37 -124 6z
m84 -24 c8 -9 11 -52 9 -127 -3 -112 -4 -114 -27 -117 -13 -2 -28 2 -32 10
-14 21 -11 222 3 236 16 16 33 15 47 -2z"/>
<path d="M4506 3795 c-3 -9 -6 -82 -6 -161 0 -123 2 -146 16 -151 24 -9 34 15
34 84 l0 62 38 3 c25 2 37 8 37 18 0 10 -12 16 -37 18 l-38 3 0 49 0 49 48 3
c34 2 47 7 47 18 0 23 -130 27 -139 5z"/>
<path d="M4750 3790 c0 -15 7 -20 25 -20 l24 0 3 -142 c3 -135 4 -143 23 -143
19 0 20 8 23 143 3 142 3 142 26 142 23 0 41 22 29 34 -4 3 -39 6 -80 6 -66 0
-73 -2 -73 -20z"/>
<path d="M5010 3778 c0 -18 5 -91 12 -161 8 -95 15 -130 26 -134 21 -9 29 11
48 117 9 52 20 103 23 113 4 11 16 -31 30 -103 22 -114 38 -147 59 -126 6 6
30 224 31 289 1 31 -26 48 -40 26 -5 -8 -9 -43 -9 -79 0 -97 -14 -103 -29 -12
-7 43 -16 85 -21 92 -17 28 -37 0 -49 -72 -17 -94 -30 -119 -31 -57 0 91 -11
139 -31 139 -15 0 -19 -7 -19 -32z"/>
<path d="M5404 3799 c-10 -17 -63 -302 -58 -311 11 -18 34 -6 40 20 10 49 13
52 44 52 31 0 34 -3 44 -52 6 -28 29 -37 41 -18 8 13 -43 291 -57 307 -13 16
-44 17 -54 2z m49 -191 c-2 -5 -13 -8 -25 -8 -19 0 -20 4 -14 61 11 95 19 101
32 24 6 -38 10 -73 7 -77z"/>
<path d="M5641 3796 c-8 -9 -11 -61 -9 -162 3 -125 5 -149 18 -149 12 0 16 16
18 73 3 64 5 72 22 72 13 0 22 -9 26 -27 19 -88 31 -118 47 -121 21 -4 22 23
2 97 -13 51 -13 56 5 79 27 34 27 105 0 132 -24 24 -111 28 -129 6z m93 -32
c19 -18 21 -65 4 -82 -7 -7 -25 -12 -40 -12 -27 0 -28 2 -28 48 0 27 3 52 7
55 11 12 41 7 57 -9z"/>
<path d="M5910 3791 c-13 -25 -13 -251 0 -286 9 -25 13 -26 72 -23 50 2 63 6
66 21 3 14 -4 17 -47 17 l-51 0 0 55 0 55 41 0 c33 0 40 3 37 18 -2 12 -14 18
-41 20 l-37 3 0 49 0 49 47 3 c36 2 49 7 51 21 3 15 -5 17 -62 17 -54 0 -67
-3 -76 -19z"/>
<path d="M6335 3800 c-10 -16 4 -30 30 -30 l24 0 3 -142 c3 -119 5 -143 18
-143 12 0 15 24 18 142 l3 142 27 3 c16 2 28 10 30 21 3 15 -6 17 -72 17 -41
0 -78 -4 -81 -10z"/>
<path d="M6620 3788 c-18 -19 -20 -35 -20 -139 0 -103 2 -119 21 -143 26 -33
88 -37 119 -6 18 18 20 33 20 145 0 112 -2 127 -20 145 -28 28 -93 27 -120 -2z
m84 -24 c13 -12 16 -38 16 -117 0 -56 -4 -108 -9 -115 -4 -8 -19 -12 -32 -10
-24 3 -24 5 -27 122 -2 89 1 121 10 128 18 11 25 10 42 -8z"/>
<path d="M6905 3790 c-13 -15 -20 -42 -23 -99 -6 -101 4 -167 29 -192 28 -28
84 -25 114 6 24 23 25 30 25 138 0 100 -3 117 -21 141 -27 34 -96 37 -124 6z
m84 -24 c8 -9 11 -52 9 -127 -3 -112 -4 -114 -27 -117 -13 -2 -28 2 -32 10
-14 21 -11 222 3 236 16 16 33 15 47 -2z"/>
<path d="M7177 3804 c-4 -4 -7 -74 -7 -154 0 -115 3 -150 14 -159 21 -18 121
-10 121 9 0 10 -13 16 -42 18 l-42 3 -3 142 c-3 119 -6 142 -18 145 -9 1 -19
0 -23 -4z"/>
</g>
</svg>
